<?xml version="1.0" encoding="UTF-8"?><svg xmlns="http://www.w3.org/2000/svg" xmlns:xlink="http://www.w3.org/1999/xlink" width="810pt" zoomAndPan="magnify" viewBox="0 0 810 809.999993" height="809.999993pt" preserveAspectRatio="xMidYMid meet" version="1.2"><g xml:id="surface1" id="surface1"><path style=" stroke:none;fill-rule:nonzero;fill:rgb(0%,0%,0%);fill-opacity:1;" d="M 347.519531 0 C 287.664062 0 232.03125 31.90625 201.972656 83.847656 L 201.707031 83.847656 L 22.941406 390.234375 C 7.910156 416.074219 0 445.34375 0 475.136719 L 0 810 L 67.5 810 L 67.5 475.136719 C 67.5 457.472656 72.246094 439.804688 81.210938 424.25 L 259.980469 117.597656 C 278.4375 86.484375 311.394531 67.5 347.519531 67.5 L 739.335938 67.5 C 737.753906 74.355469 729.84375 115.226562 695.828125 129.726562 L 682.644531 135 L 405 135 L 371.25 202.5 L 672.890625 202.5 C 661.550781 245.742188 625.429688 270 575.859375 270 L 403.945312 270 C 360.703125 270 328.007812 311.925781 338.554688 353.847656 L 355.429688 421.347656 C 362.8125 451.144531 389.96875 472.5 420.820312 472.5 L 540 472.5 C 571.113281 472.5 598.007812 493.332031 605.390625 523.652344 L 609.609375 540 L 460.632812 540 L 451.40625 547.382812 C 451.40625 547.382812 402.628906 587.460938 297.15625 608.292969 L 270 613.566406 L 270 810 L 337.5 810 L 337.5 665.246094 C 420.292969 643.625 468.542969 616.730469 481.464844 607.5 L 609.609375 607.5 C 652.851562 607.5 685.546875 565.578125 675 523.652344 L 670.78125 507.304688 C 656.015625 447.1875 601.699219 405 540 405 L 420.820312 405 L 403.945312 337.5 L 575.859375 337.5 C 653.90625 337.5 726.941406 288.722656 741.972656 208.828125 L 742.5 205.664062 L 742.5 171.386719 C 793.386719 132.890625 809.734375 72.773438 809.734375 72.773438 L 810 70.136719 L 810 67.5 C 810 67.5 810.527344 52.207031 802.351562 35.597656 C 793.914062 18.984375 770.710938 0 742.5 0 Z M 347.519531 0 "/></g></svg>