<?xml version="1.0" encoding="UTF-8"?><svg xmlns="http://www.w3.org/2000/svg" xmlns:xlink="http://www.w3.org/1999/xlink" width="810pt" zoomAndPan="magnify" viewBox="0 0 810 809.999993" height="809.999993pt" preserveAspectRatio="xMidYMid meet" version="1.2"><defs><clipPath xml:id="clip1" id="clip1"><path d="M 133 71 L 675.867188 71 L 675.867188 774 L 133 774 Z M 133 71 "/></clipPath><clipPath xml:id="clip2" id="clip2"><path d="M 108 43 L 695.957031 43 L 695.957031 805 L 108 805 Z M 108 43 "/></clipPath></defs><g xml:id="surface1" id="surface1"><path style=" stroke:none;fill-rule:nonzero;fill:rgb(0%,0%,0%);fill-opacity:1;" d="M 476.875 361.292969 C 468.488281 361.292969 461.628906 354.425781 461.628906 346.027344 L 461.628906 100.238281 C 461.628906 84.511719 447.660156 71.230469 431.132812 71.230469 C 414.601562 71.230469 400.632812 84.238281 400.632812 99.628906 L 400.632812 346.027344 C 400.632812 354.425781 393.804688 361.292969 385.386719 361.292969 C 377 361.292969 370.136719 354.425781 370.136719 346.027344 L 370.136719 99.628906 C 370.136719 67.171875 397.492188 40.699219 431.132812 40.699219 C 464.191406 40.699219 492.125 68.027344 492.125 100.238281 L 492.125 346.027344 C 492.125 354.425781 485.292969 361.292969 476.875 361.292969 Z M 476.875 361.292969 "/><path style=" stroke:none;fill-rule:nonzero;fill:rgb(0%,0%,0%);fill-opacity:1;" d="M 568.367188 391.828125 C 559.980469 391.828125 553.117188 384.957031 553.117188 376.5625 L 553.117188 149.578125 C 553.117188 133.792969 539.152344 120.542969 522.621094 120.542969 C 506.09375 120.542969 492.125 133.550781 492.125 148.9375 L 492.125 376.5625 C 492.125 384.957031 485.292969 391.828125 476.875 391.828125 C 468.488281 391.828125 461.628906 384.957031 461.628906 376.5625 L 461.628906 148.9375 C 461.628906 116.480469 488.984375 90.007812 522.621094 90.007812 C 555.679688 90.007812 583.617188 117.335938 583.617188 149.578125 L 583.617188 376.5625 C 583.617188 384.957031 576.785156 391.828125 568.367188 391.828125 Z M 568.367188 391.828125 "/><g clip-rule="nonzero" clip-path="url(#clip1)"><path style=" stroke:none;fill-rule:nonzero;fill:rgb(0%,0%,0%);fill-opacity:1;" d="M 535.980469 773.488281 L 363.671875 773.488281 C 291.304688 773.488281 239.945312 661.617188 194.660156 562.933594 C 177.519531 525.59375 161.355469 490.359375 147.875 471.335938 C 128.144531 443.550781 129.304688 409.078125 150.683594 387.613281 C 174.46875 363.828125 212.53125 363.15625 235.554688 386.179688 L 278.675781 430.605469 L 278.675781 130.832031 C 278.675781 98.527344 306.613281 71.292969 339.671875 71.292969 C 373.339844 71.292969 400.664062 97.703125 400.664062 130.222656 L 400.664062 284.992188 C 400.664062 293.359375 393.832031 300.257812 385.417969 300.257812 C 377.03125 300.257812 370.167969 293.359375 370.167969 284.992188 L 370.167969 130.222656 C 370.167969 114.832031 356.199219 101.796875 339.671875 101.796875 C 323.140625 101.796875 309.175781 115.136719 309.175781 130.800781 L 309.175781 468.160156 C 309.175781 474.359375 305.394531 479.976562 299.660156 482.296875 C 293.925781 484.679688 287.308594 483.183594 283.007812 478.847656 L 213.839844 407.644531 C 203.046875 396.835938 183.953125 397.445312 172.242188 409.199219 C 159.800781 421.71875 163.765625 441.046875 172.761719 453.6875 C 187.886719 475.03125 203.867188 509.867188 222.378906 550.171875 C 259.707031 631.574219 310.851562 742.957031 363.640625 742.957031 L 532.839844 742.957031 C 550.222656 735.261719 644.609375 688.882812 644.609375 589.589844 L 644.609375 191.898438 C 644.609375 176.113281 630.640625 162.890625 614.113281 162.890625 C 597.582031 162.890625 583.617188 175.898438 583.617188 191.289062 L 583.617188 407.125 C 583.617188 415.492188 576.785156 422.390625 568.367188 422.390625 C 559.980469 422.390625 553.117188 415.492188 553.117188 407.125 L 553.117188 191.289062 C 553.117188 158.832031 580.476562 132.328125 614.113281 132.328125 C 647.171875 132.328125 675.105469 159.6875 675.105469 191.867188 L 675.105469 589.558594 C 675.105469 717.492188 547.082031 770.191406 541.621094 772.328125 C 539.824219 773.125 537.902344 773.488281 535.980469 773.488281 Z M 535.980469 773.488281 "/></g><path style=" stroke:none;fill-rule:nonzero;fill:rgb(0%,0%,0%);fill-opacity:1;" d="M 480.292969 357.621094 C 471.203125 357.621094 463.765625 350.179688 463.765625 341.082031 L 463.765625 74.808594 C 463.765625 57.773438 448.628906 43.386719 430.714844 43.386719 C 412.796875 43.386719 397.660156 57.476562 397.660156 74.148438 L 397.660156 341.082031 C 397.660156 350.179688 390.257812 357.621094 381.136719 357.621094 C 372.046875 357.621094 364.609375 350.179688 364.609375 341.082031 L 364.609375 74.148438 C 364.609375 38.988281 394.257812 10.308594 430.714844 10.308594 C 466.542969 10.308594 496.816406 39.914062 496.816406 74.808594 L 496.816406 341.082031 C 496.816406 350.179688 489.414062 357.621094 480.292969 357.621094 Z M 480.292969 357.621094 "/><path style=" stroke:none;fill-rule:nonzero;fill:rgb(0%,0%,0%);fill-opacity:1;" d="M 579.445312 390.699219 C 570.359375 390.699219 562.921875 383.257812 562.921875 374.160156 L 562.921875 128.261719 C 562.921875 111.160156 547.785156 96.804688 529.867188 96.804688 C 511.953125 96.804688 496.816406 110.898438 496.816406 127.566406 L 496.816406 374.160156 C 496.816406 383.257812 489.414062 390.699219 480.292969 390.699219 C 471.203125 390.699219 463.765625 383.257812 463.765625 374.160156 L 463.765625 127.566406 C 463.765625 92.40625 493.414062 63.730469 529.867188 63.730469 C 565.699219 63.730469 595.972656 93.332031 595.972656 128.261719 L 595.972656 374.160156 C 595.972656 383.257812 588.570312 390.699219 579.445312 390.699219 Z M 579.445312 390.699219 "/><g clip-rule="nonzero" clip-path="url(#clip2)"><path style=" stroke:none;fill-rule:nonzero;fill:rgb(0%,0%,0%);fill-opacity:1;" d="M 544.347656 804.167969 L 357.601562 804.167969 C 279.167969 804.167969 223.511719 682.972656 174.425781 576.066406 C 155.851562 535.613281 138.335938 497.441406 123.726562 476.832031 C 102.339844 446.730469 103.597656 409.386719 126.765625 386.132812 C 152.546875 360.367188 193.796875 359.640625 218.75 384.578125 L 265.484375 432.707031 L 265.484375 107.953125 C 265.484375 72.957031 295.761719 43.453125 331.589844 43.453125 C 368.078125 43.453125 397.695312 72.0625 397.695312 107.292969 L 397.695312 274.960938 C 397.695312 284.023438 390.289062 291.5 381.167969 291.5 C 372.078125 291.5 364.640625 284.023438 364.640625 274.960938 L 364.640625 107.292969 C 364.640625 90.621094 349.503906 76.496094 331.589844 76.496094 C 313.675781 76.496094 298.539062 90.953125 298.539062 107.921875 L 298.539062 473.394531 C 298.539062 480.109375 294.441406 486.195312 288.226562 488.707031 C 282.011719 491.289062 274.839844 489.667969 270.179688 484.96875 L 195.21875 407.832031 C 183.515625 396.125 162.828125 396.785156 150.132812 409.519531 C 136.648438 423.082031 140.945312 444.019531 150.695312 457.714844 C 167.089844 480.835938 184.410156 518.578125 204.472656 562.238281 C 244.925781 650.421875 300.355469 771.089844 357.570312 771.089844 L 540.941406 771.089844 C 559.78125 762.753906 662.078125 712.507812 662.078125 604.941406 L 662.078125 174.109375 C 662.078125 157.007812 646.941406 142.683594 629.023438 142.683594 C 611.109375 142.683594 595.972656 156.777344 595.972656 173.445312 L 595.972656 407.269531 C 595.972656 416.335938 588.570312 423.808594 579.445312 423.808594 C 570.359375 423.808594 562.921875 416.335938 562.921875 407.269531 L 562.921875 173.445312 C 562.921875 138.285156 592.570312 109.574219 629.023438 109.574219 C 664.855469 109.574219 695.128906 139.210938 695.128906 174.074219 L 695.128906 604.910156 C 695.128906 743.503906 556.375 800.59375 550.460938 802.910156 C 548.511719 803.769531 546.429688 804.167969 544.347656 804.167969 Z M 544.347656 804.167969 "/></g><path style=" stroke:none;fill-rule:nonzero;fill:rgb(0%,0%,0%);fill-opacity:1;" d="M 475.125 361.066406 C 466.035156 361.066406 458.597656 353.625 458.597656 344.527344 L 458.597656 78.253906 C 458.597656 61.21875 443.460938 46.832031 425.546875 46.832031 C 407.628906 46.832031 392.492188 60.921875 392.492188 77.59375 L 392.492188 344.527344 C 392.492188 353.625 385.089844 361.066406 375.96875 361.066406 C 366.878906 361.066406 359.441406 353.625 359.441406 344.527344 L 359.441406 77.59375 C 359.441406 42.433594 389.089844 13.753906 425.546875 13.753906 C 461.375 13.753906 491.648438 43.359375 491.648438 78.253906 L 491.648438 344.527344 C 491.648438 353.625 484.246094 361.066406 475.125 361.066406 Z M 475.125 361.066406 "/><path style=" stroke:none;fill-rule:nonzero;fill:rgb(0%,0%,0%);fill-opacity:1;" d="M 574.277344 394.144531 C 565.191406 394.144531 557.753906 386.703125 557.753906 377.605469 L 557.753906 131.707031 C 557.753906 114.605469 542.617188 100.25 524.699219 100.25 C 506.785156 100.25 491.648438 114.34375 491.648438 131.011719 L 491.648438 377.605469 C 491.648438 386.703125 484.246094 394.144531 475.125 394.144531 C 466.035156 394.144531 458.597656 386.703125 458.597656 377.605469 L 458.597656 131.011719 C 458.597656 95.851562 488.246094 67.175781 524.699219 67.175781 C 560.53125 67.175781 590.804688 96.777344 590.804688 131.707031 L 590.804688 377.605469 C 590.804688 386.703125 583.402344 394.144531 574.277344 394.144531 Z M 574.277344 394.144531 "/><path style=" stroke:none;fill-rule:nonzero;fill:rgb(0%,0%,0%);fill-opacity:1;" d="M 539.179688 807.613281 L 352.433594 807.613281 C 274 807.613281 218.339844 686.417969 169.257812 579.511719 C 150.683594 539.058594 133.167969 500.886719 118.558594 480.277344 C 97.171875 450.175781 98.429688 412.832031 121.597656 389.578125 C 147.378906 363.8125 188.628906 363.085938 213.582031 388.023438 L 260.316406 436.152344 L 260.316406 111.398438 C 260.316406 76.402344 290.59375 46.898438 326.421875 46.898438 C 362.910156 46.898438 392.527344 75.507812 392.527344 110.738281 L 392.527344 278.40625 C 392.527344 287.46875 385.121094 294.945312 376 294.945312 C 366.910156 294.945312 359.472656 287.46875 359.472656 278.40625 L 359.472656 110.738281 C 359.472656 94.066406 344.335938 79.941406 326.421875 79.941406 C 308.507812 79.941406 293.371094 94.398438 293.371094 111.367188 L 293.371094 476.839844 C 293.371094 483.554688 289.273438 489.640625 283.058594 492.152344 C 276.84375 494.734375 269.671875 493.113281 265.011719 488.414062 L 190.050781 411.277344 C 178.347656 399.570312 157.660156 400.230469 144.964844 412.964844 C 131.480469 426.527344 135.777344 447.464844 145.527344 461.160156 C 161.921875 484.28125 179.242188 522.023438 199.304688 565.683594 C 239.757812 653.867188 295.1875 774.535156 352.402344 774.535156 L 535.773438 774.535156 C 554.613281 766.199219 656.910156 715.953125 656.910156 608.386719 L 656.910156 177.554688 C 656.910156 160.453125 641.769531 146.128906 623.855469 146.128906 C 605.941406 146.128906 590.804688 160.222656 590.804688 176.890625 L 590.804688 410.714844 C 590.804688 419.78125 583.402344 427.253906 574.277344 427.253906 C 565.191406 427.253906 557.753906 419.78125 557.753906 410.714844 L 557.753906 176.890625 C 557.753906 141.730469 587.402344 113.019531 623.855469 113.019531 C 659.6875 113.019531 689.960938 142.65625 689.960938 177.519531 L 689.960938 608.355469 C 689.960938 746.949219 551.207031 804.039062 545.292969 806.355469 C 543.34375 807.214844 541.261719 807.613281 539.179688 807.613281 Z M 539.179688 807.613281 "/></g></svg>