<?xml version="1.0" encoding="UTF-8"?><svg xmlns="http://www.w3.org/2000/svg" xmlns:xlink="http://www.w3.org/1999/xlink" width="810pt" zoomAndPan="magnify" viewBox="0 0 810 809.999993" height="809.999993pt" preserveAspectRatio="xMidYMid meet" version="1.2"><g xml:id="surface1" id="surface1"><path style=" stroke:none;fill-rule:nonzero;fill:rgb(0%,0%,0%);fill-opacity:1;" d="M 0 368.082031 L 0 631.429688 C 0 647.398438 12.945312 660.34375 28.914062 660.34375 L 310.871094 660.34375 C 388.949219 698.191406 475.820312 718.167969 562.574219 718.167969 L 665.507812 718.167969 C 713.335938 718.167969 752.25 679.257812 752.25 631.429688 C 752.25 620.140625 750.058594 609.359375 746.121094 599.457031 C 782.9375 589.429688 810.082031 555.71875 810.082031 515.773438 C 810.082031 493.5625 801.601562 473.316406 787.980469 457.867188 C 801.722656 442.527344 810.082031 422.28125 810.082031 400.121094 C 810.082031 377.925781 801.691406 357.65625 787.921875 342.292969 C 801.691406 326.933594 810.082031 306.664062 810.082031 284.46875 C 810.082031 236.640625 771.167969 197.726562 723.335938 197.726562 L 665.507812 197.726562 C 654.527344 197.726562 644.023438 199.796875 634.339844 203.539062 C 623.445312 134.539062 563.566406 81.605469 491.550781 81.605469 C 359.566406 81.605469 292.09375 151.027344 213.960938 231.414062 C 206.296875 239.304688 198.429688 247.390625 190.371094 255.554688 L 28.914062 255.554688 C 12.945312 255.554688 0 268.496094 0 284.46875 Z M 665.507812 660.34375 L 607.675781 660.34375 C 591.738281 660.34375 578.761719 647.367188 578.761719 631.429688 C 578.761719 615.488281 591.738281 602.515625 607.675781 602.515625 L 665.507812 602.515625 C 681.457031 602.515625 694.421875 615.488281 694.421875 631.429688 C 694.421875 647.367188 681.457031 660.34375 665.507812 660.34375 Z M 723.335938 544.6875 L 665.507812 544.6875 C 649.566406 544.6875 636.59375 531.714844 636.59375 515.773438 C 636.59375 499.835938 649.566406 486.863281 665.507812 486.863281 L 723.335938 486.863281 C 739.285156 486.863281 752.25 499.835938 752.25 515.773438 C 752.25 531.714844 739.285156 544.6875 723.335938 544.6875 Z M 723.335938 429.035156 C 709.347656 429.035156 679.59375 429.035156 665.507812 429.035156 C 649.566406 429.035156 636.59375 416.0625 636.59375 400.121094 C 636.59375 384.179688 649.566406 371.207031 665.507812 371.207031 L 723.335938 371.207031 C 739.285156 371.207031 752.25 384.179688 752.25 400.121094 C 752.25 416.0625 739.285156 429.035156 723.335938 429.035156 Z M 665.507812 255.554688 L 723.335938 255.554688 C 739.285156 255.554688 752.25 268.527344 752.25 284.46875 C 752.25 300.40625 739.285156 313.382812 723.335938 313.382812 L 665.507812 313.382812 C 649.566406 313.382812 636.59375 300.40625 636.59375 284.46875 C 636.59375 268.527344 649.566406 255.554688 665.507812 255.554688 Z M 202.402344 313.382812 C 210.078125 313.382812 217.425781 310.339844 222.847656 304.910156 C 234.15625 293.609375 244.976562 282.480469 255.4375 271.710938 C 330.074219 194.917969 384.003906 139.433594 491.550781 139.433594 C 539.382812 139.433594 578.296875 178.347656 578.296875 226.175781 L 578.296875 423.613281 C 544.636719 411.679688 520.464844 379.527344 520.464844 341.828125 C 520.464844 321.601562 520.464844 304.226562 520.464844 284 C 520.464844 268.03125 507.515625 255.085938 491.550781 255.085938 C 475.582031 255.085938 462.636719 268.03125 462.636719 284 L 462.636719 312.914062 C 462.636719 344.800781 436.6875 370.742188 404.808594 370.742188 C 372.917969 370.742188 346.976562 344.800781 346.976562 312.914062 C 346.976562 296.945312 334.027344 284 318.0625 284 C 302.09375 284 289.148438 296.945312 289.148438 312.914062 C 289.148438 376.6875 341.027344 428.566406 404.808594 428.566406 C 431.878906 428.566406 456.785156 419.195312 476.507812 403.554688 C 496.613281 445.9375 536.722656 477.050781 584.574219 484.609375 C 580.832031 494.292969 578.761719 504.789062 578.761719 515.773438 C 578.761719 527.0625 580.953125 537.84375 584.890625 547.746094 C 548.078125 557.773438 520.933594 591.484375 520.933594 631.429688 C 520.933594 641.058594 522.535156 650.328125 525.453125 658.988281 C 457.847656 654.085938 391.125 635.863281 330.53125 605.566406 C 326.519531 603.5625 322.089844 602.515625 317.601562 602.515625 L 57.828125 602.515625 L 57.828125 313.382812 Z M 202.402344 313.382812 "/></g></svg>