<?xml version="1.0" encoding="UTF-8"?><svg xmlns="http://www.w3.org/2000/svg" xmlns:xlink="http://www.w3.org/1999/xlink" width="810pt" zoomAndPan="magnify" viewBox="0 0 810 809.999993" height="809.999993pt" preserveAspectRatio="xMidYMid meet" version="1.2"><defs><clipPath xml:id="clip1" id="clip1"><path d="M 0 93.65625 L 810 93.65625 L 810 716.15625 L 0 716.15625 Z M 0 93.65625 "/></clipPath></defs><g xml:id="surface1" id="surface1"><g clip-rule="nonzero" clip-path="url(#clip1)"><path style=" stroke:none;fill-rule:nonzero;fill:rgb(0%,0%,0%);fill-opacity:1;" d="M 280.460938 93.65625 C 82.953125 93.65625 0.253906 199.433594 0.253906 280.40625 L 0.253906 498.28125 C 0.253906 568.554688 28.46875 624.96875 70.304688 661.6875 C 111.898438 698.40625 165.65625 716.15625 218.195312 716.15625 L 467.269531 716.15625 C 518.59375 716.15625 560.671875 674.089844 560.671875 622.78125 C 560.671875 610.625 558.238281 598.707031 553.859375 588.007812 C 593.265625 577.066406 622.941406 541.078125 622.941406 498.28125 C 622.941406 487.339844 620.507812 476.882812 617.101562 467.15625 L 716.34375 467.15625 C 767.667969 467.15625 809.746094 425.089844 809.746094 373.78125 C 809.746094 322.472656 767.667969 280.40625 716.34375 280.40625 L 665.019531 280.40625 L 692.992188 271.410156 C 692.992188 271.410156 698.832031 269.222656 703.695312 266.304688 C 708.316406 263.386719 713.910156 259.25 719.992188 253.171875 C 719.992188 253.171875 719.992188 253.171875 720.234375 253.171875 C 756.234375 216.941406 756.476562 157.121094 720.234375 120.890625 C 696.398438 97.304688 663.074219 90.738281 634.371094 97.0625 C 633.398438 97.0625 632.671875 97.304688 631.941406 97.546875 L 372.894531 175.359375 C 371.917969 166.605469 369.488281 155.175781 362.675781 142.046875 C 351.246094 118.945312 322.054688 93.65625 280.460938 93.65625 Z M 280.460938 155.90625 C 301.136719 155.90625 303.082031 161.742188 307.21875 169.765625 C 311.109375 177.792969 311.597656 187.03125 311.597656 187.03125 L 311.597656 311.53125 C 311.597656 329.039062 297.976562 342.65625 280.460938 342.65625 C 262.949219 342.65625 249.328125 329.039062 249.328125 311.53125 L 249.328125 218.15625 L 187.058594 218.15625 L 187.058594 311.53125 C 187.058594 354.570312 219.410156 385.453125 259.058594 396.152344 C 264.894531 401.503906 272.4375 404.664062 280.460938 404.90625 C 331.785156 404.90625 373.867188 362.839844 373.867188 311.53125 L 373.867188 240.042969 L 647.507812 157.851562 C 658.695312 155.421875 668.667969 157.609375 676.210938 165.148438 C 688.613281 177.304688 688.613281 196.515625 676.210938 208.917969 C 673.535156 211.347656 672.316406 212.320312 671.589844 212.808594 L 457.539062 281.867188 C 442.945312 286.484375 433.945312 301.074219 436.378906 316.394531 C 438.808594 331.472656 451.945312 342.65625 467.269531 342.65625 L 716.34375 342.65625 C 733.855469 342.65625 747.476562 356.273438 747.476562 373.78125 C 747.476562 391.289062 733.855469 404.90625 716.34375 404.90625 L 405 404.90625 C 353.675781 404.90625 311.597656 446.972656 311.597656 498.28125 C 311.597656 510.441406 314.027344 522.355469 318.40625 533.054688 C 279.003906 543.996094 249.328125 579.984375 249.328125 622.78125 C 249.328125 633.722656 251.761719 644.179688 255.164062 653.90625 L 218.195312 653.90625 C 179.761719 653.90625 140.359375 640.53125 111.167969 615 C 82.222656 589.46875 62.523438 552.507812 62.523438 498.28125 L 62.523438 280.40625 C 62.523438 242.960938 104.359375 155.90625 280.460938 155.90625 Z M 405 467.15625 L 529.539062 467.15625 C 547.050781 467.15625 560.671875 480.773438 560.671875 498.28125 C 560.671875 515.789062 547.050781 529.40625 529.539062 529.40625 L 405 529.40625 C 387.488281 529.40625 373.867188 515.789062 373.867188 498.28125 C 373.867188 480.773438 387.488281 467.15625 405 467.15625 Z M 342.730469 591.65625 L 467.269531 591.65625 C 484.78125 591.65625 498.402344 605.273438 498.402344 622.78125 C 498.402344 640.289062 484.78125 653.90625 467.269531 653.90625 L 342.730469 653.90625 C 325.21875 653.90625 311.597656 640.289062 311.597656 622.78125 C 311.597656 605.273438 325.21875 591.65625 342.730469 591.65625 Z M 342.730469 591.65625 "/></g></g></svg>