<?xml version="1.0" encoding="UTF-8"?><svg xmlns="http://www.w3.org/2000/svg" xmlns:xlink="http://www.w3.org/1999/xlink" width="810pt" zoomAndPan="magnify" viewBox="0 0 810 809.999993" height="809.999993pt" preserveAspectRatio="xMidYMid meet" version="1.2"><defs><clipPath xml:id="clip1" id="clip1"><path d="M 62.269531 0 L 747.769531 0 L 747.769531 810 L 62.269531 810 Z M 62.269531 0 "/></clipPath></defs><g xml:id="surface1" id="surface1"><g clip-rule="nonzero" clip-path="url(#clip1)"><path style=" stroke:none;fill-rule:nonzero;fill:rgb(0%,0%,0%);fill-opacity:1;" d="M 264.332031 0 C 221.246094 0 190.089844 32.371094 179.625 72.285156 C 147.980469 63.523438 114.390625 64.984375 89.566406 89.566406 C 65.953125 113.417969 59.382812 146.765625 65.710938 175.726562 C 65.710938 176.457031 65.953125 177.1875 66.199219 177.917969 L 144.574219 439.074219 C 137.273438 439.316406 128.023438 438.585938 110.742188 447.351562 C 87.617188 458.789062 62.304688 487.996094 62.304688 529.617188 C 62.304688 727.246094 168.183594 810 249.238281 810 L 467.332031 810 C 537.675781 810 594.144531 781.765625 630.898438 739.902344 C 667.652344 698.285156 685.421875 644.496094 685.421875 591.921875 L 685.421875 412.789062 C 685.421875 391.371094 689.804688 370.4375 698.324219 350.722656 C 715.363281 311.539062 740.917969 253.613281 740.917969 253.613281 C 740.917969 253.125 741.164062 252.882812 741.164062 252.394531 C 745.542969 241.6875 747.734375 230.246094 747.734375 218.078125 C 747.734375 166.722656 705.625 124.617188 654.265625 124.617188 C 639.90625 124.617188 627.734375 130.699219 615.566406 136.542969 L 619.214844 122.179688 C 619.460938 121.9375 619.460938 121.453125 619.460938 120.964844 C 619.460938 120.964844 620.675781 116.339844 621.648438 110.984375 C 622.136719 108.550781 622.625 105.632812 623.109375 103.195312 C 623.597656 100.761719 624.085938 101.25 624.085938 93.460938 C 624.085938 42.105469 581.976562 0 530.617188 0 C 486.804688 0 449.5625 30.421875 439.582031 71.554688 C 439.339844 72.773438 420.109375 151.632812 402.097656 226.351562 C 398.691406 215.15625 398.691406 214.914062 395.28125 203.472656 C 385.304688 170.859375 375.324219 138 367.535156 113.175781 C 363.882812 100.761719 360.71875 90.296875 358.527344 82.753906 C 357.3125 79.101562 356.582031 75.9375 355.851562 73.992188 C 355.363281 71.800781 354.632812 69.121094 355.363281 71.800781 L 355.121094 71.554688 C 345.140625 30.667969 308.144531 0 264.332031 0 Z M 264.332031 62.308594 C 279.179688 62.308594 291.347656 72.53125 294.511719 86.160156 C 295.730469 90.785156 295.484375 89.324219 295.972656 91.515625 C 296.703125 93.949219 297.675781 96.867188 298.894531 100.761719 C 301.085938 108.308594 304.25 118.773438 308.144531 131.1875 C 315.6875 156.257812 325.667969 189.113281 335.40625 221.726562 C 355.363281 286.957031 375.324219 351.941406 375.324219 351.941406 C 379.21875 364.839844 391.386719 373.847656 405.019531 373.847656 L 405.992188 373.847656 C 420.351562 373.847656 433.011719 364.109375 436.175781 349.992188 C 436.175781 349.992188 498.488281 93.949219 500.433594 86.160156 C 503.597656 72.773438 515.523438 62.308594 530.617188 62.308594 C 547.898438 62.308594 561.285156 75.9375 561.527344 93.21875 C 561.285156 94.921875 560.796875 96.867188 560.554688 99.058594 C 559.582031 102.953125 559.09375 105.875 558.851562 106.847656 L 500.433594 334.902344 C 496.296875 350.722656 505.058594 366.789062 520.394531 372.140625 C 535.726562 377.496094 552.523438 370.195312 559.09375 355.347656 L 625.542969 205.90625 C 630.167969 194.953125 641.121094 186.921875 654.265625 186.921875 C 671.792969 186.921875 685.421875 200.554688 685.421875 218.078125 C 685.421875 222.214844 684.691406 225.867188 683.230469 229.757812 C 682.5 231.21875 658.160156 286.957031 641.367188 325.65625 C 629.195312 353.15625 623.109375 382.851562 623.109375 412.789062 L 623.109375 591.921875 C 623.109375 630.378906 609.722656 669.808594 584.164062 699.015625 C 558.609375 727.976562 521.609375 747.691406 467.332031 747.691406 L 249.238281 747.691406 C 211.753906 747.691406 124.613281 705.828125 124.613281 529.617188 C 124.613281 508.925781 130.457031 506.980469 138.488281 502.84375 C 146.523438 498.949219 155.769531 498.460938 155.769531 498.460938 L 280.394531 498.460938 C 297.921875 498.460938 311.550781 512.089844 311.550781 529.617188 C 311.550781 547.140625 297.921875 560.769531 280.394531 560.769531 L 186.925781 560.769531 L 186.925781 623.078125 L 280.394531 623.078125 C 322.992188 623.078125 353.660156 590.949219 364.613281 551.519531 C 370.457031 545.921875 373.863281 537.890625 373.863281 529.617188 C 373.863281 478.261719 331.753906 436.152344 280.394531 436.152344 L 208.832031 436.152344 L 126.5625 162.097656 C 124.128906 151.144531 126.320312 141.164062 133.863281 133.863281 C 146.035156 121.207031 165.265625 121.207031 177.675781 133.863281 C 180.113281 136.296875 181.085938 137.515625 181.570312 138.246094 L 250.699219 352.429688 C 256.054688 368.734375 273.578125 377.742188 290.132812 372.386719 C 306.4375 367.03125 315.445312 349.507812 310.089844 332.957031 L 240.234375 116.828125 C 240.234375 116.828125 240.234375 116.828125 239.988281 116.828125 L 233.175781 95.410156 C 233.175781 94.679688 233.175781 94.191406 233.175781 93.460938 C 233.175781 75.9375 246.5625 62.308594 264.332031 62.308594 Z M 264.332031 62.308594 "/></g></g></svg>